<?xml version="1.0" encoding="utf-8"?>
<!-- Generator: Adobe Illustrator 28.2.0, SVG Export Plug-In . SVG Version: 6.00 Build 0)  -->
<svg version="1.1" id="Layer_1" xmlns="http://www.w3.org/2000/svg" xmlns:xlink="http://www.w3.org/1999/xlink" x="0px" y="0px"
	 viewBox="0 0 172.34 94.79" style="enable-background:new 0 0 172.34 94.79;" xml:space="preserve">
<style type="text/css">
	.st0{fill:#000000;}
	.st1{fill:#ED2E2D;}
</style>
<g>
	<g>
		<g>
			<path class="st0" d="M47.37,22.83l-1.24-4.71l12.25-9.51C58.37,8.61,50.87,17.29,47.37,22.83z"/>
			<path class="st0" d="M47.42,22.87l4.87,0l6.09-14.26C58.37,8.61,51.89,18.08,47.42,22.87z"/>
		</g>
		<g>
			<rect x="30.43" y="38.75" class="st1" width="1.25" height="20.58"/>
			<path class="st1" d="M44.96,17.42l2.87-2.32c-3.18-1-6.56-1.55-10.08-1.55c-8.79,0-16.79,3.4-22.76,8.95
				c5.47-4.19,12.34-6.69,19.82-6.69C38.36,15.81,41.77,16.38,44.96,17.42z"/>
			<path class="st1" d="M55.29,18.52l-0.17,0.35l-1,3.24c7.85,5.77,12.94,14.95,12.94,25.31c0,17.46-14.43,31.61-32.24,31.61
				c-4.77,0-9.3-1.03-13.38-2.85c4.83,2.7,10.39,4.25,16.32,4.25c18.47,0,33.44-14.97,33.44-33.44
				C71.19,34.96,64.83,24.41,55.29,18.52z"/>
		</g>
	</g>
	<g>
		<g>
			<g>
				<path class="st1" d="M90.3,34.12l0.71,0.1c0.58,0.12,1.1,0.29,1.57,0.51c0.47,0.23,0.85,0.53,1.15,0.92
					c0.21,0.2,0.35,0.43,0.4,0.68c0.07,0.17,0.1,0.33,0.1,0.48l0.01,0.35v4.6l-0.06,0.43l-0.17,0.51c-0.06,0.18-0.14,0.35-0.26,0.51
					c-0.12,0.15-0.26,0.31-0.43,0.48c-0.42,0.34-0.9,0.61-1.42,0.81c-0.63,0.21-1.38,0.32-2.25,0.32h-6.13h-1.53v-0.77v-9.19v-0.77
					h1.53h6.13L90.3,34.12z M91.19,37.15c-0.05-0.36-0.12-0.63-0.2-0.81c-0.21-0.26-0.38-0.41-0.49-0.46
					c-0.17-0.12-0.35-0.18-0.52-0.2l-0.32-0.07h-4.6v7.66h4.6c0.19,0,0.37-0.03,0.52-0.08c0.15-0.05,0.27-0.11,0.35-0.18
					c0.21-0.15,0.35-0.32,0.4-0.49c0.07-0.08,0.12-0.16,0.16-0.26l0.04-0.27l0.06-0.23V37.15z"/>
				<path class="st1" d="M95.84,36.39h3.06v1.52h-3.06V36.39z M95.84,38.67h3.06v0.77v4.6v0.77h-3.06v-0.77v-4.6V38.67z"/>
				<path class="st1" d="M111.22,38.67h1.53v1.53h-1.53h-3.06h-1.56h-1.47l-0.66,0.14c-0.31,0.1-0.55,0.3-0.72,0.62h7.49
					c0.51,0.06,0.89,0.15,1.15,0.27c0.26,0.13,0.38,0.29,0.38,0.51l-0.06,0.39l-0.09,0.43c-0.09,0.17-0.16,0.31-0.21,0.4
					c-0.05,0.1-0.11,0.18-0.17,0.26c-0.31,0.39-0.71,0.7-1.21,0.94l-0.78,0.3c-0.3,0.09-0.57,0.15-0.81,0.2
					c-0.24,0.04-0.46,0.08-0.65,0.09c-0.19,0.02-0.4,0.03-0.62,0.03h-1.56h-1.47h-3.09h-1.53v-1.53h1.53h3.09h1.47h1.56l0.66-0.15
					c0.35-0.12,0.58-0.32,0.69-0.62h-7.49c-0.51-0.06-0.9-0.14-1.16-0.26c-0.25-0.13-0.38-0.3-0.38-0.5c0-0.28,0.04-0.55,0.12-0.81
					c0.08-0.26,0.19-0.48,0.35-0.68c0.36-0.41,0.77-0.73,1.24-0.96c0.57-0.26,1.07-0.42,1.5-0.48c0.51-0.1,0.98-0.14,1.42-0.14h1.47
					h1.56H111.22z"/>
				<path class="st1" d="M122.65,38.72l0.71,0.1c0.58,0.12,1.1,0.29,1.57,0.51c0.47,0.23,0.85,0.53,1.15,0.92
					c0.21,0.2,0.35,0.43,0.4,0.68c0.07,0.17,0.1,0.33,0.1,0.48l0.01,0.35v2.28v0.77h-3.06v-0.77v-2.28
					c-0.05-0.36-0.12-0.63-0.2-0.81c-0.16-0.24-0.33-0.41-0.51-0.5c-0.18-0.09-0.34-0.15-0.5-0.18L122,40.2h-4.6v3.83v0.77h-3.06
					v-0.77V40.2v-1.53v-3.83v-0.77h3.06v0.77v3.83h4.6L122.65,38.72z"/>
				<path class="st1" d="M135.85,38.67l0.55,0.03l0.67,0.09l0.72,0.17l0.61,0.19c0.52,0.22,0.94,0.48,1.26,0.78
					c0.34,0.3,0.56,0.65,0.68,1.04l0.12,0.78v2.28v0.77h-3.06v-0.16c-0.34,0.07-0.61,0.11-0.82,0.13c-0.21,0.02-0.45,0.03-0.71,0.03
					h-3.04l-0.65-0.04l-0.77-0.1l-0.75-0.19l-0.75-0.29c-0.52-0.27-0.93-0.6-1.24-0.98c-0.31-0.39-0.46-0.87-0.46-1.45
					c0-0.28,0.04-0.55,0.12-0.81c0.08-0.26,0.19-0.49,0.35-0.68c0.36-0.41,0.77-0.74,1.24-0.97c0.56-0.26,1.06-0.42,1.5-0.48
					c0.25-0.05,0.49-0.08,0.73-0.11c0.24-0.02,0.46-0.04,0.69-0.04H135.85z M135.85,43.27l0.32-0.04c0.17-0.04,0.33-0.1,0.46-0.17
					l0.29-0.19l0.26-0.29c0.13-0.19,0.2-0.47,0.2-0.82c-0.04-0.34-0.11-0.61-0.2-0.81c-0.16-0.24-0.34-0.41-0.51-0.5
					c-0.18-0.09-0.34-0.15-0.5-0.18l-0.32-0.06h-3.04l-0.38,0.06c-0.14,0.04-0.24,0.07-0.33,0.11c-0.08,0.03-0.15,0.06-0.2,0.08
					l-0.23,0.2L131.43,41c-0.12,0.19-0.17,0.44-0.17,0.75c0.04,0.37,0.11,0.64,0.2,0.82l0.2,0.23l0.26,0.22
					c0.1,0.05,0.18,0.09,0.25,0.12c0.07,0.03,0.14,0.06,0.21,0.08l0.43,0.04H135.85z"/>
			</g>
			<g>
				<path class="st1" d="M88.77,48.77l0.71,0.1c0.58,0.12,1.1,0.29,1.57,0.51c0.47,0.23,0.85,0.53,1.15,0.92
					c0.21,0.2,0.35,0.43,0.4,0.68c0.07,0.17,0.1,0.33,0.1,0.48l0.01,0.35v6.88v0.77h-3.06v-0.77V51.8c-0.05-0.36-0.12-0.63-0.2-0.81
					c-0.19-0.25-0.35-0.4-0.46-0.46c-0.19-0.13-0.37-0.2-0.52-0.2l-0.35-0.07v8.43v0.77h-3.04v-0.77v-8.43
					c-0.39,0-0.68,0.08-0.9,0.25l-0.29,0.23c-0.08,0.08-0.14,0.19-0.2,0.33c-0.08,0.14-0.12,0.31-0.12,0.49l-0.06,0.25v6.88v0.77
					h-3.06v-0.77V51.8l0.06-0.42l0.14-0.49c0.24-0.43,0.48-0.77,0.72-1.01c0.4-0.34,0.87-0.61,1.42-0.81
					c0.22-0.1,0.41-0.16,0.56-0.2c0.15-0.04,0.31-0.06,0.48-0.06c0.4-0.06,0.81-0.09,1.24-0.09h3.04L88.77,48.77z"/>
				<path class="st1" d="M102.62,53.36l0.71,0.1c0.58,0.12,1.1,0.29,1.57,0.51c0.47,0.23,0.85,0.53,1.15,0.91
					c0.21,0.2,0.35,0.43,0.4,0.68c0.07,0.17,0.1,0.33,0.1,0.48l0.01,0.35c0,0.19-0.14,0.37-0.43,0.53c-0.31,0.15-0.67,0.23-1.1,0.23
					h-7.49c0.21,0.36,0.45,0.58,0.72,0.63l0.66,0.13h3.04h1.53v1.53h-1.53h-3.04l-0.65-0.04l-0.77-0.1l-0.75-0.19l-0.75-0.29
					c-0.51-0.27-0.92-0.6-1.24-0.98c-0.31-0.39-0.47-0.87-0.47-1.45c0-0.28,0.04-0.55,0.12-0.81c0.08-0.26,0.19-0.49,0.35-0.68
					c0.36-0.41,0.77-0.74,1.24-0.97c0.57-0.26,1.07-0.42,1.5-0.48c0.51-0.1,0.98-0.14,1.42-0.14h1.47h1.56L102.62,53.36z M98.27,55
					c-0.31,0.1-0.55,0.3-0.72,0.62h5.78c-0.24-0.36-0.49-0.56-0.75-0.62l-0.61-0.14h-1.56h-1.47L98.27,55z"/>
				<path class="st1" d="M117.35,48.72h3.06v0.77v3.83v1.53v1.55l-0.06,0.39l-0.09,0.43c-0.09,0.17-0.16,0.31-0.21,0.4
					c-0.05,0.1-0.11,0.18-0.17,0.26c-0.31,0.39-0.71,0.7-1.21,0.94l-0.78,0.3c-0.3,0.09-0.57,0.15-0.81,0.2
					c-0.24,0.04-0.46,0.08-0.65,0.09c-0.19,0.02-0.4,0.03-0.62,0.03h-3.04l-0.65-0.04l-0.77-0.1l-0.75-0.19l-0.75-0.29
					c-0.51-0.27-0.92-0.6-1.24-0.98c-0.31-0.39-0.47-0.87-0.47-1.45c0-0.28,0.04-0.55,0.12-0.81c0.08-0.26,0.19-0.49,0.35-0.68
					c0.36-0.41,0.77-0.74,1.24-0.97c0.57-0.26,1.07-0.42,1.5-0.48c0.51-0.1,0.98-0.14,1.42-0.14h4.57v-3.83V48.72z M116.14,57.87
					c0.18-0.04,0.34-0.1,0.46-0.17l0.29-0.19l0.26-0.29c0.13-0.19,0.2-0.47,0.2-0.82v-1.55h-4.57l-0.38,0.06
					c-0.26,0.08-0.43,0.14-0.52,0.19l-0.23,0.2l-0.26,0.35c-0.12,0.19-0.17,0.44-0.17,0.75c0.05,0.38,0.12,0.65,0.2,0.82l0.2,0.23
					l0.26,0.22c0.18,0.11,0.34,0.17,0.46,0.2l0.43,0.04h3.04L116.14,57.87z"/>
				<path class="st1" d="M122,51.04h3.06v1.52H122V51.04z M122,53.32h3.06v0.77v4.6v0.77H122v-0.77v-4.6V53.32z"/>
				<path class="st1" d="M134.32,53.32l0.55,0.03l0.67,0.09l0.72,0.17l0.61,0.19c0.52,0.22,0.94,0.48,1.26,0.78
					c0.34,0.3,0.56,0.65,0.68,1.04l0.12,0.78v2.28v0.77h-3.06v-0.16c-0.34,0.07-0.61,0.11-0.82,0.13c-0.21,0.02-0.45,0.03-0.71,0.03
					h-3.04l-0.65-0.04l-0.77-0.1l-0.75-0.19l-0.75-0.29c-0.52-0.27-0.93-0.6-1.24-0.98c-0.31-0.39-0.46-0.87-0.46-1.45
					c0-0.28,0.04-0.55,0.12-0.81c0.08-0.26,0.19-0.49,0.35-0.68c0.36-0.41,0.77-0.74,1.24-0.97c0.56-0.26,1.06-0.42,1.5-0.48
					c0.25-0.05,0.49-0.08,0.73-0.11c0.24-0.02,0.46-0.04,0.69-0.04H134.32z M134.32,57.92l0.32-0.04c0.17-0.04,0.33-0.1,0.46-0.17
					l0.29-0.19l0.26-0.29c0.13-0.19,0.2-0.47,0.2-0.82c-0.04-0.34-0.11-0.61-0.2-0.81c-0.16-0.24-0.34-0.41-0.51-0.5
					c-0.18-0.09-0.34-0.15-0.5-0.18l-0.32-0.06h-3.04l-0.38,0.06c-0.14,0.04-0.24,0.07-0.33,0.11c-0.08,0.03-0.15,0.06-0.2,0.08
					l-0.23,0.2l-0.26,0.35c-0.12,0.19-0.17,0.44-0.17,0.75c0.04,0.37,0.11,0.64,0.2,0.82l0.2,0.23l0.26,0.22
					c0.1,0.05,0.18,0.09,0.25,0.12c0.07,0.03,0.14,0.06,0.21,0.08l0.43,0.04H134.32z"/>
				<path class="st1" d="M151.23,53.32h1.53v1.53h-1.53h-3.06h-1.56h-1.47L144.47,55c-0.31,0.1-0.55,0.3-0.72,0.62h7.49
					c0.51,0.06,0.89,0.15,1.15,0.27c0.25,0.13,0.38,0.29,0.38,0.51l-0.06,0.39l-0.09,0.43c-0.09,0.17-0.16,0.31-0.21,0.4
					c-0.05,0.1-0.11,0.18-0.17,0.26c-0.31,0.39-0.71,0.7-1.21,0.94l-0.78,0.3c-0.3,0.09-0.57,0.15-0.81,0.2
					c-0.24,0.04-0.46,0.08-0.65,0.09c-0.19,0.02-0.4,0.03-0.62,0.03h-1.56h-1.47h-3.09h-1.53v-1.53h1.53h3.09h1.47h1.56l0.66-0.15
					c0.35-0.12,0.58-0.32,0.69-0.62h-7.49c-0.51-0.06-0.9-0.14-1.16-0.26c-0.25-0.13-0.38-0.3-0.38-0.5c0-0.28,0.04-0.55,0.12-0.81
					c0.08-0.26,0.19-0.48,0.35-0.68c0.36-0.41,0.77-0.73,1.24-0.96c0.57-0.26,1.07-0.42,1.5-0.48c0.51-0.1,0.98-0.14,1.42-0.14h1.47
					h1.56H151.23z"/>
			</g>
		</g>
		<rect x="80.46" y="64.17" class="st0" width="77.56" height="0.79"/>
	</g>
</g>
</svg>
