<?xml version="1.0" encoding="utf-8"?>
<!-- Generator: Adobe Illustrator 28.2.0, SVG Export Plug-In . SVG Version: 6.00 Build 0)  -->
<svg version="1.1" id="Layer_1" xmlns="http://www.w3.org/2000/svg" xmlns:xlink="http://www.w3.org/1999/xlink" x="0px" y="0px"
	 viewBox="0 0 172.34 94.79" style="enable-background:new 0 0 172.34 94.79;" xml:space="preserve">
<style type="text/css">
	.st0{fill:#EACF74;}
	.st1{fill:#ED2E2D;}
</style>
<g>
	<g>
		<g>
			<path class="st0" d="M47.37,22.83l-1.24-4.71l12.25-9.51C58.37,8.61,50.87,17.29,47.37,22.83z"/>
			<path class="st0" d="M47.42,22.87l4.87,0l6.09-14.26C58.37,8.61,51.89,18.08,47.42,22.87z"/>
		</g>
		<g>
			<rect x="30.43" y="38.75" class="st1" width="1.25" height="20.58"/>
			<path class="st1" d="M44.96,17.42l2.87-2.32c-3.18-1-6.56-1.55-10.08-1.55c-8.79,0-16.79,3.4-22.76,8.95
				c5.47-4.19,12.34-6.69,19.82-6.69C38.36,15.81,41.77,16.38,44.96,17.42z"/>
			<path class="st1" d="M55.29,18.52l-0.17,0.35l-1,3.24c7.85,5.77,12.94,14.95,12.94,25.31c0,17.46-14.43,31.61-32.24,31.61
				c-4.77,0-9.3-1.03-13.38-2.85c4.83,2.7,10.39,4.25,16.32,4.25c18.47,0,33.44-14.97,33.44-33.44
				C71.19,34.96,64.83,24.41,55.29,18.52z"/>
		</g>
	</g>
	
</g>
</svg>
